FILE "Adventures of Batman & Robin, The (1995)(Sega)(US).img" BINARY
  TRACK 01 MODE1/2352
    INDEX 01 00:00:00
  TRACK 02 AUDIO
    PREGAP 00:02:00
    INDEX 01 15:17:36
  TRACK 03 AUDIO
    INDEX 00 18:09:17
    INDEX 01 18:11:17
  TRACK 04 AUDIO
    INDEX 00 20:41:43
    INDEX 01 20:43:43
  TRACK 05 AUDIO
    INDEX 00 23:14:48
    INDEX 01 23:16:48
  TRACK 06 AUDIO
    INDEX 00 25:55:14
    INDEX 01 25:57:14
  TRACK 07 AUDIO
    INDEX 00 28:32:07
    INDEX 01 28:34:07
